<svg xmlns="http://www.w3.org/2000/svg" xmlns:xlink="http://www.w3.org/1999/xlink" width="400" zoomAndPan="magnify" viewBox="0 0 300 74.999997" height="100" preserveAspectRatio="xMidYMid meet" version="1.0"><defs><g/><clipPath id="fe7bd02478"><path d="M 0.121094 2 L 58 2 L 58 72 L 0.121094 72 Z M 0.121094 2 " clip-rule="nonzero"/></clipPath><clipPath id="6500c9d8e0"><path d="M 102 0 L 140 0 L 140 66 L 102 66 Z M 102 0 " clip-rule="nonzero"/></clipPath><clipPath id="2d8dba770b"><rect x="0" width="226" y="0" height="75"/></clipPath></defs><g transform="matrix(1, 0, 0, 1, 27, -0.000000000000001893)"><g clip-path="url(#2d8dba770b)"><g clip-path="url(#fe7bd02478)"><g fill="#0c0a0a" fill-opacity="1"><g transform="translate(7.58706, 49.984051)"><g><path d="M 45.984375 -33.9375 C 46.421875 -35.15625 46.660156 -36.410156 46.703125 -37.703125 C 46.773438 -40.191406 45.742188 -42.066406 43.609375 -43.328125 C 42.210938 -44.148438 40.71875 -44.707031 39.125 -45 C 35.875 -45.550781 32.601562 -45.71875 29.3125 -45.5 C 25.6875 -45.300781 22.148438 -44.789062 18.703125 -43.96875 C 15.253906 -43.144531 11.851562 -42.078125 8.5 -40.765625 C 6.875 -40.117188 5.316406 -39.34375 3.828125 -38.4375 C 3.253906 -38.101562 2.703125 -37.722656 2.171875 -37.296875 C 1.648438 -36.878906 1.191406 -36.378906 0.796875 -35.796875 C -0.046875 -34.671875 0.0664062 -33.648438 1.140625 -32.734375 C 1.578125 -32.359375 2.050781 -32.046875 2.5625 -31.796875 C 3.382812 -31.410156 4.21875 -31.0625 5.0625 -30.75 C 7.570312 -29.914062 10.125 -29.273438 12.71875 -28.828125 C 13.257812 -28.722656 13.601562 -28.742188 13.75 -28.890625 C 13.894531 -29.035156 13.929688 -29.394531 13.859375 -29.96875 C 13.835938 -30.414062 13.789062 -30.859375 13.71875 -31.296875 C 13.675781 -31.609375 13.644531 -31.929688 13.625 -32.265625 C 13.5625 -32.597656 13.5625 -32.914062 13.625 -33.21875 C 13.757812 -33.601562 14.050781 -33.820312 14.5 -33.875 C 14.675781 -33.875 14.816406 -33.820312 14.921875 -33.71875 C 15.035156 -33.625 15.125 -33.492188 15.1875 -33.328125 C 15.300781 -33.023438 15.382812 -32.71875 15.4375 -32.40625 C 15.582031 -31.3125 15.722656 -30.222656 15.859375 -29.140625 C 15.929688 -28.628906 16.21875 -28.34375 16.71875 -28.28125 C 17.4375 -28.1875 18.148438 -28.082031 18.859375 -27.96875 C 18.941406 -27.945312 19.03125 -27.9375 19.125 -27.9375 C 20 -27.8125 20.851562 -27.65625 21.6875 -27.46875 C 21.976562 -27.40625 22.253906 -27.285156 22.515625 -27.109375 C 22.535156 -27.109375 22.546875 -27.109375 22.546875 -27.109375 C 22.640625 -27.066406 22.695312 -26.988281 22.71875 -26.875 C 22.75 -26.769531 22.742188 -26.65625 22.703125 -26.53125 C 22.671875 -26.40625 22.617188 -26.3125 22.546875 -26.25 C 22.210938 -26 21.847656 -25.894531 21.453125 -25.9375 C 21.035156 -25.976562 20.625 -26.023438 20.21875 -26.078125 C 20 -26.117188 19.773438 -26.148438 19.546875 -26.171875 C 18.773438 -26.285156 18.023438 -26.382812 17.296875 -26.46875 C 17.003906 -26.519531 16.71875 -26.554688 16.4375 -26.578125 C 16.269531 -26.421875 16.171875 -26.265625 16.140625 -26.109375 C 16.109375 -25.953125 16.09375 -25.796875 16.09375 -25.640625 C 16.09375 -25.617188 16.09375 -25.597656 16.09375 -25.578125 C 16.09375 -20.160156 16.09375 -14.738281 16.09375 -9.3125 C 16.09375 -8.25 16.09375 -7.175781 16.09375 -6.09375 C 16.15625 -6.09375 16.222656 -6.082031 16.296875 -6.0625 C 16.390625 -6.007812 16.460938 -5.992188 16.515625 -6.015625 C 16.941406 -6.191406 17.359375 -6.394531 17.765625 -6.625 C 22.140625 -8.96875 26.269531 -11.6875 30.15625 -14.78125 C 32.664062 -16.78125 35.019531 -18.921875 37.21875 -21.203125 C 39.414062 -23.492188 41.425781 -25.972656 43.25 -28.640625 C 44.382812 -30.304688 45.296875 -32.070312 45.984375 -33.9375 Z M 1.890625 -29.9375 C 1.203125 -30.25 0.550781 -30.617188 -0.0625 -31.046875 C -2.039062 -32.492188 -2.304688 -34.210938 -0.859375 -36.203125 C -0.460938 -36.765625 -0.00390625 -37.257812 0.515625 -37.6875 C 1.035156 -38.113281 1.578125 -38.519531 2.140625 -38.90625 C 4.265625 -40.257812 6.503906 -41.390625 8.859375 -42.296875 C 15.921875 -45.097656 23.238281 -46.71875 30.8125 -47.15625 C 34.125 -47.382812 37.390625 -47.175781 40.609375 -46.53125 C 41.921875 -46.257812 43.175781 -45.835938 44.375 -45.265625 C 44.738281 -45.117188 45.085938 -44.953125 45.421875 -44.765625 C 48.253906 -43.253906 49.597656 -40.882812 49.453125 -37.65625 C 49.316406 -35.769531 48.84375 -33.972656 48.03125 -32.265625 C 47.363281 -30.804688 46.59375 -29.40625 45.71875 -28.0625 C 44.851562 -26.71875 43.894531 -25.421875 42.84375 -24.171875 C 37.863281 -18.148438 32.066406 -13.085938 25.453125 -8.984375 C 22.960938 -7.367188 20.375 -5.925781 17.6875 -4.65625 C 17.15625 -4.382812 16.785156 -4.0625 16.578125 -3.6875 C 16.367188 -3.3125 16.265625 -2.832031 16.265625 -2.25 C 16.117188 3.40625 15.953125 9.078125 15.765625 14.765625 C 15.734375 15.921875 15.695312 17.078125 15.65625 18.234375 C 15.632812 19.035156 15.585938 19.847656 15.515625 20.671875 C 15.515625 20.765625 15.507812 20.847656 15.5 20.921875 C 15.476562 21.328125 15.265625 21.625 14.859375 21.8125 C 14.648438 21.882812 14.472656 21.882812 14.328125 21.8125 C 14.234375 21.757812 14.175781 21.710938 14.15625 21.671875 C 14.050781 21.671875 13.960938 21.644531 13.890625 21.59375 C 13.710938 21.507812 13.613281 21.367188 13.59375 21.171875 C 13.5625 20.992188 13.5625 20.816406 13.59375 20.640625 L 13.59375 20.375 C 13.59375 19.550781 13.601562 18.71875 13.625 17.875 L 13.828125 -2.015625 C 13.828125 -2.191406 13.816406 -2.375 13.796875 -2.5625 L 13.765625 -2.65625 C 13.710938 -2.65625 13.65625 -2.644531 13.59375 -2.625 C 13.414062 -2.582031 13.25 -2.515625 13.09375 -2.421875 C 13.03125 -2.398438 12.953125 -2.363281 12.859375 -2.3125 C 9.972656 -1.050781 7.023438 0.0390625 4.015625 0.96875 C 1.003906 1.90625 -2.046875 2.726562 -5.140625 3.4375 C -5.816406 3.613281 -6.175781 3.582031 -6.21875 3.34375 C -6.550781 3.363281 -6.695312 3.253906 -6.65625 3.015625 C -6.625 2.773438 -6.515625 2.597656 -6.328125 2.484375 C -6.148438 2.367188 -5.945312 2.285156 -5.71875 2.234375 L -5.6875 2.234375 C -5.039062 2.035156 -4.382812 1.863281 -3.71875 1.71875 L -2.71875 1.4375 C 2.601562 0.0625 7.75 -1.769531 12.71875 -4.0625 C 13.125 -4.226562 13.421875 -4.445312 13.609375 -4.71875 C 13.796875 -4.988281 13.890625 -5.34375 13.890625 -5.78125 C 13.941406 -10.601562 14.007812 -15.4375 14.09375 -20.28125 L 14.15625 -25.109375 C 14.15625 -25.304688 14.144531 -25.507812 14.125 -25.71875 C 14.125 -26.269531 14.0625 -26.632812 13.9375 -26.8125 C 13.90625 -26.8125 13.878906 -26.816406 13.859375 -26.828125 C 13.703125 -26.878906 13.488281 -26.914062 13.21875 -26.9375 C 9.84375 -27.425781 6.535156 -28.238281 3.296875 -29.375 C 2.804688 -29.53125 2.335938 -29.71875 1.890625 -29.9375 Z M 1.890625 -29.9375 "/></g></g></g></g><g fill="#0c0a0a" fill-opacity="1"><g transform="translate(44.467453, 49.984051)"><g><path d="M 9.65625 -7.25 C 9.851562 -7.644531 9.984375 -7.828125 10.046875 -7.796875 C 10.117188 -7.765625 10.140625 -7.601562 10.109375 -7.3125 C 10.078125 -7.03125 10.015625 -6.707031 9.921875 -6.34375 C 9.785156 -5.789062 9.554688 -5.144531 9.234375 -4.40625 C 8.910156 -3.675781 8.550781 -3.015625 8.15625 -2.421875 C 7.570312 -1.597656 6.847656 -0.972656 5.984375 -0.546875 C 5.117188 -0.128906 4.335938 -0.0234375 3.640625 -0.234375 C 2.941406 -0.453125 2.535156 -1.113281 2.421875 -2.21875 C 2.398438 -3.15625 2.484375 -4.175781 2.671875 -5.28125 C 2.722656 -5.75 2.785156 -6.203125 2.859375 -6.640625 C 2.859375 -6.804688 2.816406 -6.929688 2.734375 -7.015625 C 2.660156 -7.097656 2.554688 -7.132812 2.421875 -7.125 C 2.328125 -7.125 2.226562 -7.125 2.125 -7.125 C 1.5625 -7.03125 0.992188 -7.035156 0.421875 -7.140625 C -0.265625 -7.347656 -0.660156 -7.691406 -0.765625 -8.171875 C -0.878906 -8.648438 -0.867188 -9.28125 -0.734375 -10.0625 C -0.671875 -10.613281 -0.46875 -11.023438 -0.125 -11.296875 C 0.21875 -11.578125 0.625 -11.691406 1.09375 -11.640625 C 1.738281 -11.585938 2.050781 -11.34375 2.03125 -10.90625 C 2.007812 -10.46875 1.890625 -10.003906 1.671875 -9.515625 C 1.460938 -9.097656 1.351562 -8.75 1.34375 -8.46875 C 1.332031 -8.195312 1.570312 -8.097656 2.0625 -8.171875 C 2.164062 -8.203125 2.285156 -8.238281 2.421875 -8.28125 C 2.609375 -8.351562 2.816406 -8.414062 3.046875 -8.46875 C 3.273438 -8.53125 3.578125 -8.546875 3.953125 -8.515625 C 4.398438 -8.492188 4.695312 -8.285156 4.84375 -7.890625 C 4.988281 -7.503906 5.050781 -7.019531 5.03125 -6.4375 C 5.007812 -5.851562 4.953125 -5.257812 4.859375 -4.65625 C 4.742188 -3.894531 4.6875 -3.242188 4.6875 -2.703125 C 4.6875 -2.160156 4.847656 -1.84375 5.171875 -1.75 C 5.578125 -1.644531 6.191406 -2.023438 7.015625 -2.890625 C 7.835938 -3.753906 8.71875 -5.207031 9.65625 -7.25 Z M 9.65625 -7.25 "/></g></g></g><g fill="#0c0a0a" fill-opacity="1"><g transform="translate(53.736775, 49.984051)"><g><path d="M 3.890625 -11.078125 C 5.203125 -11.140625 6.109375 -10.53125 6.609375 -9.25 C 6.960938 -8.3125 7.054688 -7.3125 6.890625 -6.25 C 6.734375 -5.1875 6.378906 -4.300781 5.828125 -3.59375 C 5.296875 -2.945312 4.644531 -2.53125 3.875 -2.34375 C 3.101562 -2.15625 2.351562 -2.210938 1.625 -2.515625 C 0.894531 -2.828125 0.316406 -3.4375 -0.109375 -4.34375 C -0.441406 -5.15625 -0.550781 -5.96875 -0.4375 -6.78125 C -0.34375 -7.46875 -0.148438 -8.132812 0.140625 -8.78125 C 0.472656 -9.582031 0.96875 -10.160156 1.625 -10.515625 C 2.28125 -10.878906 3.035156 -11.066406 3.890625 -11.078125 Z M 3.296875 -3.421875 C 3.859375 -3.753906 4.257812 -4.234375 4.5 -4.859375 C 4.738281 -5.492188 4.867188 -6.171875 4.890625 -6.890625 C 4.921875 -7.617188 4.863281 -8.296875 4.71875 -8.921875 C 4.53125 -9.785156 4.273438 -10.207031 3.953125 -10.1875 C 3.628906 -10.175781 3.296875 -9.890625 2.953125 -9.328125 C 2.609375 -8.765625 2.304688 -8.082031 2.046875 -7.28125 C 1.796875 -6.488281 1.640625 -5.722656 1.578125 -4.984375 C 1.523438 -4.253906 1.625 -3.722656 1.875 -3.390625 C 2.132812 -3.054688 2.609375 -3.066406 3.296875 -3.421875 Z M 3.296875 -3.421875 "/></g></g></g><g fill="#0c0a0a" fill-opacity="1"><g transform="translate(61.870154, 49.984051)"><g><path d="M 16.328125 -5.953125 C 15.191406 -4.441406 14.113281 -3.46875 13.09375 -3.03125 C 12.070312 -2.601562 11.144531 -2.503906 10.3125 -2.734375 C 9.476562 -2.972656 8.757812 -3.335938 8.15625 -3.828125 C 7.550781 -4.316406 7.097656 -4.738281 6.796875 -5.09375 C 6.703125 -5.195312 6.625 -5.28125 6.5625 -5.34375 C 8.519531 -1.75 9.816406 1.429688 10.453125 4.203125 C 11.097656 6.984375 11.265625 9.285156 10.953125 11.109375 C 10.648438 12.929688 10.039062 14.21875 9.125 14.96875 C 8.207031 15.71875 7.175781 15.878906 6.03125 15.453125 C 4.894531 15.023438 3.804688 13.941406 2.765625 12.203125 C 1.722656 10.460938 0.914062 8.007812 0.34375 4.84375 C -0.21875 1.6875 -0.363281 -2.242188 -0.09375 -6.953125 C 0.164062 -11.660156 1.019531 -17.203125 2.46875 -23.578125 C 2.820312 -25.085938 3.328125 -26.847656 3.984375 -28.859375 C 4.640625 -30.867188 5.453125 -32.78125 6.421875 -34.59375 C 7.398438 -36.414062 8.566406 -37.828125 9.921875 -38.828125 C 10.503906 -39.234375 11.148438 -39.5 11.859375 -39.625 C 13.671875 -39.945312 14.957031 -39.738281 15.71875 -39 C 16.476562 -38.269531 16.832031 -37.179688 16.78125 -35.734375 C 16.738281 -34.296875 16.398438 -32.640625 15.765625 -30.765625 C 15.140625 -28.898438 14.351562 -26.960938 13.40625 -24.953125 C 12.46875 -22.941406 11.472656 -21.015625 10.421875 -19.171875 C 9.378906 -17.335938 8.421875 -15.722656 7.546875 -14.328125 C 6.679688 -12.941406 6.007812 -11.925781 5.53125 -11.28125 C 5.394531 -11.082031 5.25 -10.867188 5.09375 -10.640625 C 5.007812 -10.535156 4.921875 -10.414062 4.828125 -10.28125 C 6.421875 -7.988281 7.828125 -6.421875 9.046875 -5.578125 C 10.273438 -4.734375 11.335938 -4.363281 12.234375 -4.46875 C 13.128906 -4.570312 13.890625 -4.898438 14.515625 -5.453125 C 15.148438 -6.003906 15.660156 -6.5625 16.046875 -7.125 C 16.253906 -7.382812 16.4375 -7.59375 16.59375 -7.75 C 16.75 -7.90625 16.875 -7.972656 16.96875 -7.953125 C 17.300781 -7.878906 17.367188 -7.640625 17.171875 -7.234375 C 16.984375 -6.835938 16.703125 -6.410156 16.328125 -5.953125 Z M 3.25 -12.921875 C 3.175781 -12.273438 3.203125 -11.863281 3.328125 -11.6875 C 3.460938 -11.507812 3.75 -11.742188 4.1875 -12.390625 C 4.851562 -13.316406 5.6875 -14.585938 6.6875 -16.203125 C 7.6875 -17.828125 8.722656 -19.628906 9.796875 -21.609375 C 10.878906 -23.585938 11.851562 -25.585938 12.71875 -27.609375 C 13.59375 -29.628906 14.21875 -31.507812 14.59375 -33.25 C 14.96875 -35 14.953125 -36.460938 14.546875 -37.640625 C 14.378906 -38.128906 14.070312 -38.425781 13.625 -38.53125 C 13.1875 -38.644531 12.707031 -38.566406 12.1875 -38.296875 C 11.113281 -37.679688 10.132812 -36.585938 9.25 -35.015625 C 8.363281 -33.453125 7.578125 -31.625 6.890625 -29.53125 C 6.203125 -27.445312 5.609375 -25.320312 5.109375 -23.15625 C 4.609375 -21 4.203125 -19.015625 3.890625 -17.203125 C 3.578125 -15.390625 3.363281 -13.960938 3.25 -12.921875 Z M 7.296875 14.34375 C 8.222656 13.9375 8.742188 13.007812 8.859375 11.5625 C 8.972656 10.125 8.816406 8.40625 8.390625 6.40625 C 7.960938 4.40625 7.394531 2.378906 6.6875 0.328125 C 5.988281 -1.722656 5.273438 -3.5625 4.546875 -5.1875 C 3.828125 -6.8125 3.226562 -7.960938 2.75 -8.640625 C 2.46875 -5.023438 2.46875 -1.773438 2.75 1.109375 C 3.03125 3.992188 3.457031 6.441406 4.03125 8.453125 C 4.601562 10.472656 5.195312 11.988281 5.8125 13 C 6.4375 14.007812 6.929688 14.457031 7.296875 14.34375 Z M 7.296875 14.34375 "/></g></g></g><g fill="#0c0a0a" fill-opacity="1"><g transform="translate(77.734392, 49.984051)"><g/></g></g><g fill="#0c0a0a" fill-opacity="1"><g transform="translate(85.428535, 49.984051)"><g/></g></g><g fill="#0c0a0a" fill-opacity="1"><g transform="translate(93.122678, 49.984051)"><g/></g></g><g fill="#0c0a0a" fill-opacity="1"><g transform="translate(100.816821, 49.984051)"><g/></g></g><g clip-path="url(#6500c9d8e0)"><g fill="#0c0a0a" fill-opacity="1"><g transform="translate(108.515609, 49.984051)"><g><path d="M 30.28125 -49.375 C 30.582031 -48.34375 30.734375 -47.304688 30.734375 -46.265625 C 30.734375 -43.484375 30.578125 -40.71875 30.265625 -37.96875 C 30.210938 -37.394531 30.164062 -36.828125 30.125 -36.265625 C 29.789062 -32.378906 29.398438 -28.503906 28.953125 -24.640625 C 28.578125 -21.304688 28.191406 -17.972656 27.796875 -14.640625 C 27.640625 -13.378906 27.484375 -12.113281 27.328125 -10.84375 C 26.972656 -7.757812 26.609375 -4.675781 26.234375 -1.59375 C 25.671875 3.007812 25.265625 7.609375 25.015625 12.203125 C 24.929688 13.890625 24.550781 14.863281 23.875 15.125 C 23.195312 15.382812 22.898438 13.882812 22.984375 10.625 C 23.078125 7.363281 23.269531 4.113281 23.5625 0.875 C 23.863281 -2.300781 24.21875 -5.472656 24.625 -8.640625 C 24.800781 -10.140625 24.96875 -11.628906 25.125 -13.109375 C 25.21875 -13.890625 25.304688 -14.679688 25.390625 -15.484375 C 25.660156 -17.773438 25.914062 -20.0625 26.15625 -22.34375 C 26.726562 -27.976562 27.28125 -33.617188 27.8125 -39.265625 C 27.945312 -40.691406 28.039062 -42.117188 28.09375 -43.546875 C 28.113281 -44.003906 28.132812 -44.457031 28.15625 -44.90625 C 28.15625 -44.925781 28.15625 -44.945312 28.15625 -44.96875 C 28.175781 -45.09375 28.15625 -45.234375 28.09375 -45.390625 C 28.039062 -45.546875 27.894531 -45.71875 27.65625 -45.90625 C 27.226562 -45.21875 26.816406 -44.550781 26.421875 -43.90625 C 25.554688 -42.5 24.710938 -41.097656 23.890625 -39.703125 C 21.753906 -36.078125 19.734375 -32.410156 17.828125 -28.703125 C 15.921875 -24.992188 14.1875 -21.234375 12.625 -17.421875 C 12.601562 -17.367188 12.59375 -17.332031 12.59375 -17.3125 C 12.570312 -17.21875 12.539062 -17.140625 12.5 -17.078125 C 11.4375 -15.078125 11.367188 -13.015625 12.296875 -10.890625 C 13.390625 -8.484375 13.925781 -5.984375 13.90625 -3.390625 C 13.90625 -2.898438 13.875 -2.414062 13.8125 -1.9375 C 13.757812 -1.46875 13.625 -0.992188 13.40625 -0.515625 C 13.09375 0.210938 12.5 0.753906 11.625 1.109375 C 10.5625 1.492188 9.710938 1.304688 9.078125 0.546875 C 8.710938 0.0976562 8.441406 -0.375 8.265625 -0.875 C 8.085938 -1.375 7.953125 -1.878906 7.859375 -2.390625 C 7.640625 -3.546875 7.5625 -4.695312 7.625 -5.84375 C 7.695312 -6.988281 7.832031 -8.132812 8.03125 -9.28125 C 8.03125 -9.351562 8.03125 -9.421875 8.03125 -9.484375 C 8.113281 -10.085938 8.257812 -10.675781 8.46875 -11.25 C 8.6875 -11.820312 8.765625 -12.382812 8.703125 -12.9375 C 8.648438 -13.5 8.503906 -14.054688 8.265625 -14.609375 C 6.492188 -18.765625 4.359375 -22.800781 1.859375 -26.71875 C 1.597656 -27.113281 1.320312 -27.5 1.03125 -27.875 C 0.96875 -27.957031 0.910156 -28.046875 0.859375 -28.140625 C 0.835938 -28.160156 0.804688 -28.175781 0.765625 -28.1875 C 0.722656 -28.207031 0.691406 -28.21875 0.671875 -28.21875 C 0.609375 -28.1875 0.539062 -28.15625 0.46875 -28.125 C 0.394531 -28.09375 0.347656 -28.050781 0.328125 -28 C 0.273438 -27.851562 0.253906 -27.675781 0.265625 -27.46875 C 0.179688 -23.25 0.0625 -19.019531 -0.09375 -14.78125 C -0.34375 -8.875 -0.46875 -2.96875 -0.46875 2.9375 C -0.46875 3.851562 -0.453125 4.765625 -0.421875 5.671875 C -0.421875 5.828125 -0.4375 5.976562 -0.46875 6.125 C -0.507812 6.269531 -0.597656 6.410156 -0.734375 6.546875 C -0.859375 6.648438 -1.003906 6.726562 -1.171875 6.78125 C -1.335938 6.84375 -1.519531 6.863281 -1.71875 6.84375 C -1.90625 6.789062 -2.03125 6.71875 -2.09375 6.625 C -2.164062 6.53125 -2.207031 6.410156 -2.21875 6.265625 C -2.269531 5.910156 -2.296875 5.546875 -2.296875 5.171875 C -2.429688 0.753906 -2.515625 -3.671875 -2.546875 -8.109375 C -2.578125 -12.554688 -2.503906 -17 -2.328125 -21.4375 C -2.203125 -24.289062 -2.164062 -27.144531 -2.21875 -30 C -2.21875 -30.40625 -2.21875 -30.738281 -2.21875 -31 C -2.207031 -31.40625 -2.21875 -31.71875 -2.25 -31.9375 C -2.28125 -32.15625 -2.378906 -32.375 -2.546875 -32.59375 C -2.710938 -32.820312 -2.984375 -33.140625 -3.359375 -33.546875 C -3.515625 -33.710938 -3.703125 -33.921875 -3.921875 -34.171875 C -4.097656 -34.367188 -4.289062 -34.566406 -4.5 -34.765625 C -4.8125 -35.097656 -5.109375 -35.441406 -5.390625 -35.796875 C -5.554688 -35.960938 -5.640625 -36.128906 -5.640625 -36.296875 C -5.648438 -36.460938 -5.554688 -36.617188 -5.359375 -36.765625 C -4.898438 -37.097656 -4.410156 -37.132812 -3.890625 -36.875 C -3.753906 -36.800781 -3.644531 -36.722656 -3.5625 -36.640625 C -3.070312 -36.054688 -2.429688 -35.96875 -1.640625 -36.375 C -0.972656 -36.632812 -0.554688 -36.421875 -0.390625 -35.734375 C -0.222656 -35.066406 -0.09375 -34.398438 0 -33.734375 C 0.0507812 -33.179688 0.273438 -32.675781 0.671875 -32.21875 C 2.441406 -30.050781 4.023438 -27.804688 5.421875 -25.484375 C 6.828125 -23.160156 8.109375 -20.796875 9.265625 -18.390625 C 9.285156 -18.335938 9.296875 -18.300781 9.296875 -18.28125 C 9.453125 -17.96875 9.617188 -17.65625 9.796875 -17.34375 C 9.816406 -17.320312 9.859375 -17.296875 9.921875 -17.265625 C 9.992188 -17.234375 10.0625 -17.21875 10.125 -17.21875 C 10.195312 -17.238281 10.257812 -17.265625 10.3125 -17.296875 C 10.375 -17.328125 10.425781 -17.367188 10.46875 -17.421875 C 10.570312 -17.640625 10.660156 -17.847656 10.734375 -18.046875 C 10.773438 -18.128906 10.804688 -18.207031 10.828125 -18.28125 C 12.984375 -23.382812 15.410156 -28.394531 18.109375 -33.3125 C 20.804688 -38.238281 23.703125 -43.101562 26.796875 -47.90625 C 27.054688 -48.320312 27.34375 -48.738281 27.65625 -49.15625 C 27.925781 -49.5625 28.320312 -49.820312 28.84375 -49.9375 C 29.582031 -50.082031 30.0625 -49.894531 30.28125 -49.375 Z M 11.5625 -1.6875 C 11.644531 -2.84375 11.582031 -3.988281 11.375 -5.125 C 11.175781 -6.269531 10.863281 -7.441406 10.4375 -8.640625 C 10.34375 -8.554688 10.273438 -8.484375 10.234375 -8.421875 C 10.128906 -8.328125 10.0625 -8.257812 10.03125 -8.21875 C 9.5 -5.925781 9.609375 -3.660156 10.359375 -1.421875 C 10.429688 -1.242188 10.53125 -1.078125 10.65625 -0.921875 C 10.707031 -0.867188 10.753906 -0.820312 10.796875 -0.78125 C 10.890625 -0.65625 11.007812 -0.640625 11.15625 -0.734375 C 11.175781 -0.742188 11.210938 -0.75 11.265625 -0.75 C 11.285156 -0.769531 11.304688 -0.78125 11.328125 -0.78125 C 11.347656 -0.78125 11.359375 -0.789062 11.359375 -0.8125 C 11.390625 -0.882812 11.40625 -0.941406 11.40625 -0.984375 C 11.488281 -1.222656 11.539062 -1.457031 11.5625 -1.6875 Z M 11.5625 -1.6875 "/></g></g></g></g><g fill="#0c0a0a" fill-opacity="1"><g transform="translate(139.640541, 49.984051)"><g><path d="M 1.46875 -1.34375 C 1.269531 -1.320312 1.046875 -1.460938 0.796875 -1.765625 C 0.554688 -2.066406 0.34375 -2.585938 0.15625 -3.328125 C -0.0195312 -4.078125 -0.0820312 -5.109375 -0.03125 -6.421875 C -0.03125 -6.554688 -0.03125 -6.722656 -0.03125 -6.921875 C -0.03125 -7.421875 -0.0078125 -8.007812 0.03125 -8.6875 C 0.0820312 -9.375 0.179688 -9.988281 0.328125 -10.53125 C 0.484375 -11.070312 0.71875 -11.398438 1.03125 -11.515625 C 1.96875 -11.765625 2.476562 -11.429688 2.5625 -10.515625 C 2.5625 -10.234375 2.550781 -9.941406 2.53125 -9.640625 C 2.507812 -9.515625 2.5 -9.375 2.5 -9.21875 C 2.476562 -8.800781 2.457031 -8.390625 2.4375 -7.984375 C 2.4375 -7.628906 2.421875 -7.285156 2.390625 -6.953125 C 2.390625 -6.734375 2.390625 -6.410156 2.390625 -5.984375 C 2.421875 -5.390625 2.425781 -4.738281 2.40625 -4.03125 C 2.394531 -3.332031 2.316406 -2.722656 2.171875 -2.203125 C 2.035156 -1.679688 1.800781 -1.394531 1.46875 -1.34375 Z M 2.359375 -14.640625 C 2.253906 -14.535156 2.101562 -14.46875 1.90625 -14.4375 C 1.707031 -14.40625 1.550781 -14.421875 1.4375 -14.484375 C 1.320312 -14.585938 1.25 -14.707031 1.21875 -14.84375 C 1.1875 -14.976562 1.171875 -15.144531 1.171875 -15.34375 C 1.191406 -15.394531 1.203125 -15.441406 1.203125 -15.484375 C 1.222656 -15.660156 1.265625 -15.832031 1.328125 -16 C 1.535156 -16.519531 1.945312 -16.742188 2.5625 -16.671875 C 2.78125 -16.648438 2.941406 -16.5625 3.046875 -16.40625 C 3.160156 -16.25 3.203125 -16.078125 3.171875 -15.890625 C 3.015625 -15.410156 2.742188 -14.992188 2.359375 -14.640625 Z M 2.359375 -14.640625 "/></g></g></g><g fill="#0c0a0a" fill-opacity="1"><g transform="translate(143.760239, 49.984051)"><g><path d="M 9.65625 -7.25 C 9.851562 -7.644531 9.984375 -7.828125 10.046875 -7.796875 C 10.117188 -7.765625 10.140625 -7.601562 10.109375 -7.3125 C 10.078125 -7.03125 10.015625 -6.707031 9.921875 -6.34375 C 9.785156 -5.789062 9.554688 -5.144531 9.234375 -4.40625 C 8.910156 -3.675781 8.550781 -3.015625 8.15625 -2.421875 C 7.570312 -1.597656 6.847656 -0.972656 5.984375 -0.546875 C 5.117188 -0.128906 4.335938 -0.0234375 3.640625 -0.234375 C 2.941406 -0.453125 2.535156 -1.113281 2.421875 -2.21875 C 2.398438 -3.15625 2.484375 -4.175781 2.671875 -5.28125 C 2.722656 -5.75 2.785156 -6.203125 2.859375 -6.640625 C 2.859375 -6.804688 2.816406 -6.929688 2.734375 -7.015625 C 2.660156 -7.097656 2.554688 -7.132812 2.421875 -7.125 C 2.328125 -7.125 2.226562 -7.125 2.125 -7.125 C 1.5625 -7.03125 0.992188 -7.035156 0.421875 -7.140625 C -0.265625 -7.347656 -0.660156 -7.691406 -0.765625 -8.171875 C -0.878906 -8.648438 -0.867188 -9.28125 -0.734375 -10.0625 C -0.671875 -10.613281 -0.46875 -11.023438 -0.125 -11.296875 C 0.21875 -11.578125 0.625 -11.691406 1.09375 -11.640625 C 1.738281 -11.585938 2.050781 -11.34375 2.03125 -10.90625 C 2.007812 -10.46875 1.890625 -10.003906 1.671875 -9.515625 C 1.460938 -9.097656 1.351562 -8.75 1.34375 -8.46875 C 1.332031 -8.195312 1.570312 -8.097656 2.0625 -8.171875 C 2.164062 -8.203125 2.285156 -8.238281 2.421875 -8.28125 C 2.609375 -8.351562 2.816406 -8.414062 3.046875 -8.46875 C 3.273438 -8.53125 3.578125 -8.546875 3.953125 -8.515625 C 4.398438 -8.492188 4.695312 -8.285156 4.84375 -7.890625 C 4.988281 -7.503906 5.050781 -7.019531 5.03125 -6.4375 C 5.007812 -5.851562 4.953125 -5.257812 4.859375 -4.65625 C 4.742188 -3.894531 4.6875 -3.242188 4.6875 -2.703125 C 4.6875 -2.160156 4.847656 -1.84375 5.171875 -1.75 C 5.578125 -1.644531 6.191406 -2.023438 7.015625 -2.890625 C 7.835938 -3.753906 8.71875 -5.207031 9.65625 -7.25 Z M 9.65625 -7.25 "/></g></g></g><g fill="#0c0a0a" fill-opacity="1"><g transform="translate(153.029561, 49.984051)"><g><path d="M 3.890625 -11.078125 C 5.203125 -11.140625 6.109375 -10.53125 6.609375 -9.25 C 6.960938 -8.3125 7.054688 -7.3125 6.890625 -6.25 C 6.734375 -5.1875 6.378906 -4.300781 5.828125 -3.59375 C 5.296875 -2.945312 4.644531 -2.53125 3.875 -2.34375 C 3.101562 -2.15625 2.351562 -2.210938 1.625 -2.515625 C 0.894531 -2.828125 0.316406 -3.4375 -0.109375 -4.34375 C -0.441406 -5.15625 -0.550781 -5.96875 -0.4375 -6.78125 C -0.34375 -7.46875 -0.148438 -8.132812 0.140625 -8.78125 C 0.472656 -9.582031 0.96875 -10.160156 1.625 -10.515625 C 2.28125 -10.878906 3.035156 -11.066406 3.890625 -11.078125 Z M 3.296875 -3.421875 C 3.859375 -3.753906 4.257812 -4.234375 4.5 -4.859375 C 4.738281 -5.492188 4.867188 -6.171875 4.890625 -6.890625 C 4.921875 -7.617188 4.863281 -8.296875 4.71875 -8.921875 C 4.53125 -9.785156 4.273438 -10.207031 3.953125 -10.1875 C 3.628906 -10.175781 3.296875 -9.890625 2.953125 -9.328125 C 2.609375 -8.765625 2.304688 -8.082031 2.046875 -7.28125 C 1.796875 -6.488281 1.640625 -5.722656 1.578125 -4.984375 C 1.523438 -4.253906 1.625 -3.722656 1.875 -3.390625 C 2.132812 -3.054688 2.609375 -3.066406 3.296875 -3.421875 Z M 3.296875 -3.421875 "/></g></g></g><g fill="#0c0a0a" fill-opacity="1"><g transform="translate(161.16294, 49.984051)"><g><path d="M 4.234375 -42 C 5.960938 -42.71875 7.503906 -42.582031 8.859375 -41.59375 C 10.222656 -40.613281 11.25 -39.03125 11.9375 -36.84375 C 12.625 -34.664062 12.828125 -32.109375 12.546875 -29.171875 C 12.265625 -26.242188 11.347656 -23.191406 9.796875 -20.015625 C 8.242188 -16.835938 5.898438 -13.757812 2.765625 -10.78125 C 2.546875 -10.582031 2.429688 -10.40625 2.421875 -10.25 C 2.410156 -10.09375 2.425781 -9.925781 2.46875 -9.75 C 2.488281 -9.644531 2.507812 -9.523438 2.53125 -9.390625 C 2.820312 -9.804688 3.21875 -10.253906 3.71875 -10.734375 C 4.21875 -11.210938 4.789062 -11.613281 5.4375 -11.9375 C 6.082031 -12.257812 6.773438 -12.367188 7.515625 -12.265625 C 8.253906 -12.160156 9.023438 -11.742188 9.828125 -11.015625 C 10.429688 -10.398438 10.800781 -9.59375 10.9375 -8.59375 C 11.082031 -7.59375 10.992188 -6.570312 10.671875 -5.53125 C 10.347656 -4.5 9.785156 -3.625 8.984375 -2.90625 C 8.191406 -2.195312 7.148438 -1.832031 5.859375 -1.8125 C 5.046875 -1.832031 4.378906 -1.984375 3.859375 -2.265625 C 3.335938 -2.546875 2.941406 -2.878906 2.671875 -3.265625 C 2.398438 -3.648438 2.234375 -3.988281 2.171875 -4.28125 C 2.210938 -4.082031 2.238281 -3.8125 2.25 -3.46875 C 2.257812 -3.125 2.207031 -2.8125 2.09375 -2.53125 C 1.988281 -2.257812 1.78125 -2.113281 1.46875 -2.09375 C 0.6875 -2.09375 0.285156 -2.488281 0.265625 -3.28125 C 0.253906 -4.082031 0.234375 -4.875 0.203125 -5.65625 C 0.179688 -6.613281 0.160156 -7.554688 0.140625 -8.484375 C 0.117188 -8.753906 0.109375 -9.054688 0.109375 -9.390625 C 0.0351562 -10.804688 -0.03125 -12.742188 -0.09375 -15.203125 C -0.164062 -17.660156 -0.175781 -20.316406 -0.125 -23.171875 C -0.0820312 -26.035156 0.0703125 -28.8125 0.34375 -31.5 C 0.625 -34.195312 1.078125 -36.492188 1.703125 -38.390625 C 2.328125 -40.285156 3.171875 -41.488281 4.234375 -42 Z M 3.5 -8.453125 C 3.382812 -8.296875 3.296875 -8.148438 3.234375 -8.015625 C 2.960938 -7.617188 2.804688 -7.28125 2.765625 -7 C 2.722656 -6.726562 2.835938 -6.300781 3.109375 -5.71875 C 3.390625 -5.050781 3.78125 -4.523438 4.28125 -4.140625 C 4.78125 -3.753906 5.320312 -3.617188 5.90625 -3.734375 C 6.5 -3.859375 7.082031 -4.335938 7.65625 -5.171875 C 8.007812 -5.734375 8.226562 -6.382812 8.3125 -7.125 C 8.394531 -7.875 8.289062 -8.566406 8 -9.203125 C 7.71875 -9.847656 7.207031 -10.285156 6.46875 -10.515625 C 6.132812 -10.617188 5.78125 -10.609375 5.40625 -10.484375 C 5.039062 -10.367188 4.691406 -10.113281 4.359375 -9.71875 C 4.054688 -9.332031 3.769531 -8.910156 3.5 -8.453125 Z M 2.40625 -12.0625 C 4.59375 -14.582031 6.472656 -17.40625 8.046875 -20.53125 C 9.617188 -23.65625 10.546875 -26.8125 10.828125 -30 C 10.878906 -30.738281 10.832031 -31.71875 10.6875 -32.9375 C 10.539062 -34.15625 10.28125 -35.394531 9.90625 -36.65625 C 9.539062 -37.914062 9.046875 -38.972656 8.421875 -39.828125 C 7.804688 -40.691406 7.050781 -41.160156 6.15625 -41.234375 C 5.4375 -41.210938 4.84375 -40.609375 4.375 -39.421875 C 3.90625 -38.242188 3.539062 -36.695312 3.28125 -34.78125 C 3.03125 -32.863281 2.84375 -30.78125 2.71875 -28.53125 C 2.59375 -26.289062 2.519531 -24.082031 2.5 -21.90625 C 2.476562 -19.726562 2.46875 -17.785156 2.46875 -16.078125 C 2.46875 -14.140625 2.445312 -12.800781 2.40625 -12.0625 Z M 2.40625 -12.0625 "/></g></g></g><g fill="#0c0a0a" fill-opacity="1"><g transform="translate(173.764371, 49.984051)"><g><path d="M 22.390625 -8.75 C 22.566406 -8.988281 22.753906 -9.164062 22.953125 -9.28125 C 23.160156 -9.394531 23.285156 -9.394531 23.328125 -9.28125 C 23.367188 -9.164062 23.253906 -8.898438 22.984375 -8.484375 C 22.390625 -7.585938 21.515625 -6.738281 20.359375 -5.9375 C 19.203125 -5.144531 17.925781 -4.46875 16.53125 -3.90625 C 15.132812 -3.34375 13.769531 -2.96875 12.4375 -2.78125 C 11.101562 -2.601562 9.972656 -2.691406 9.046875 -3.046875 C 8.117188 -3.410156 7.546875 -4.113281 7.328125 -5.15625 C 6.546875 -3.882812 5.625 -2.894531 4.5625 -2.1875 C 3.5 -1.476562 2.488281 -1.175781 1.53125 -1.28125 C 0.4375 -1.4375 -0.289062 -1.847656 -0.65625 -2.515625 C -1.019531 -3.179688 -1.140625 -3.945312 -1.015625 -4.8125 C -0.890625 -5.6875 -0.628906 -6.507812 -0.234375 -7.28125 C 0.078125 -7.875 0.507812 -8.425781 1.0625 -8.9375 C 1.613281 -9.457031 2.191406 -9.859375 2.796875 -10.140625 C 3.554688 -10.523438 4.316406 -10.695312 5.078125 -10.65625 C 5.835938 -10.625 6.65625 -10.378906 7.53125 -9.921875 C 7.53125 -9.921875 7.539062 -9.941406 7.5625 -9.984375 C 7.5625 -10.066406 7.578125 -10.171875 7.609375 -10.296875 C 7.640625 -10.421875 7.710938 -10.523438 7.828125 -10.609375 C 7.984375 -10.722656 8.175781 -10.8125 8.40625 -10.875 C 8.644531 -10.945312 8.878906 -10.960938 9.109375 -10.921875 C 9.453125 -10.847656 9.664062 -10.664062 9.75 -10.375 C 9.84375 -10.09375 9.859375 -9.78125 9.796875 -9.4375 C 9.742188 -9.09375 9.6875 -8.800781 9.625 -8.5625 C 9.601562 -8.507812 9.59375 -8.460938 9.59375 -8.421875 C 9.238281 -6.953125 9.375 -5.921875 10 -5.328125 C 10.625 -4.742188 11.53125 -4.472656 12.71875 -4.515625 C 13.90625 -4.566406 15.160156 -4.816406 16.484375 -5.265625 C 17.816406 -5.722656 19.03125 -6.265625 20.125 -6.890625 C 21.21875 -7.523438 21.972656 -8.144531 22.390625 -8.75 Z M 1.96875 -3.25 C 2.4375 -2.9375 2.9375 -2.96875 3.46875 -3.34375 C 4 -3.726562 4.519531 -4.273438 5.03125 -4.984375 C 5.539062 -5.703125 5.960938 -6.410156 6.296875 -7.109375 C 6.628906 -7.816406 6.816406 -8.351562 6.859375 -8.71875 C 5.796875 -9.300781 4.882812 -9.40625 4.125 -9.03125 C 3.375 -8.664062 2.785156 -8.078125 2.359375 -7.265625 C 1.929688 -6.460938 1.6875 -5.664062 1.625 -4.875 C 1.5625 -4.082031 1.675781 -3.539062 1.96875 -3.25 Z M 1.96875 -3.25 "/></g></g></g><g fill="#0c0a0a" fill-opacity="1"><g transform="translate(195.423081, 49.984051)"><g><path d="M 8.328125 -41.078125 C 9.546875 -40.910156 10.601562 -40.046875 11.5 -38.484375 C 12.40625 -36.921875 13.019531 -34.898438 13.34375 -32.421875 C 13.664062 -29.953125 13.554688 -27.273438 13.015625 -24.390625 C 12.484375 -21.515625 11.394531 -18.679688 9.75 -15.890625 C 8.113281 -13.109375 5.796875 -10.609375 2.796875 -8.390625 C 2.890625 -7.222656 3.066406 -6.070312 3.328125 -4.9375 C 3.585938 -3.8125 3.976562 -2.914062 4.5 -2.25 C 4.957031 -1.71875 5.503906 -1.550781 6.140625 -1.75 C 6.785156 -1.957031 7.425781 -2.378906 8.0625 -3.015625 C 8.707031 -3.660156 9.289062 -4.363281 9.8125 -5.125 C 10.332031 -5.894531 10.71875 -6.566406 10.96875 -7.140625 C 11.164062 -7.566406 11.363281 -7.78125 11.5625 -7.78125 C 11.757812 -7.78125 11.8125 -7.566406 11.71875 -7.140625 C 11.363281 -6.128906 10.929688 -5.148438 10.421875 -4.203125 C 9.910156 -3.253906 9.25 -2.40625 8.4375 -1.65625 C 7.8125 -1.050781 7.0625 -0.660156 6.1875 -0.484375 C 4.820312 -0.285156 3.707031 -0.648438 2.84375 -1.578125 C 1.988281 -2.515625 1.351562 -3.851562 0.9375 -5.59375 C 0.664062 -6.675781 0.476562 -8.300781 0.375 -10.46875 C 0.28125 -12.632812 0.28125 -15.070312 0.375 -17.78125 C 0.476562 -20.488281 0.707031 -23.226562 1.0625 -26 C 1.425781 -28.78125 1.914062 -31.332031 2.53125 -33.65625 C 3.15625 -35.976562 3.941406 -37.820312 4.890625 -39.1875 C 5.847656 -40.550781 6.992188 -41.179688 8.328125 -41.078125 Z M 2.828125 -10.21875 C 5.492188 -12.6875 7.492188 -15.289062 8.828125 -18.03125 C 10.160156 -20.769531 11.003906 -23.457031 11.359375 -26.09375 C 11.710938 -28.726562 11.738281 -31.101562 11.4375 -33.21875 C 11.144531 -35.34375 10.679688 -37.007812 10.046875 -38.21875 C 9.421875 -39.4375 8.800781 -39.988281 8.1875 -39.875 C 7.4375 -39.65625 6.769531 -38.878906 6.1875 -37.546875 C 5.613281 -36.210938 5.128906 -34.523438 4.734375 -32.484375 C 4.335938 -30.453125 4.003906 -28.28125 3.734375 -25.96875 C 3.460938 -23.65625 3.253906 -21.414062 3.109375 -19.25 C 2.960938 -17.082031 2.867188 -15.191406 2.828125 -13.578125 C 2.785156 -11.972656 2.785156 -10.851562 2.828125 -10.21875 Z M 2.828125 -10.21875 "/></g></g></g><g fill="#0c0a0a" fill-opacity="1"><g transform="translate(206.191855, 49.984051)"><g><path d="M 8.328125 -41.078125 C 9.546875 -40.910156 10.601562 -40.046875 11.5 -38.484375 C 12.40625 -36.921875 13.019531 -34.898438 13.34375 -32.421875 C 13.664062 -29.953125 13.554688 -27.273438 13.015625 -24.390625 C 12.484375 -21.515625 11.394531 -18.679688 9.75 -15.890625 C 8.113281 -13.109375 5.796875 -10.609375 2.796875 -8.390625 C 2.890625 -7.222656 3.066406 -6.070312 3.328125 -4.9375 C 3.585938 -3.8125 3.976562 -2.914062 4.5 -2.25 C 4.957031 -1.71875 5.503906 -1.550781 6.140625 -1.75 C 6.785156 -1.957031 7.425781 -2.378906 8.0625 -3.015625 C 8.707031 -3.660156 9.289062 -4.363281 9.8125 -5.125 C 10.332031 -5.894531 10.71875 -6.566406 10.96875 -7.140625 C 11.164062 -7.566406 11.363281 -7.78125 11.5625 -7.78125 C 11.757812 -7.78125 11.8125 -7.566406 11.71875 -7.140625 C 11.363281 -6.128906 10.929688 -5.148438 10.421875 -4.203125 C 9.910156 -3.253906 9.25 -2.40625 8.4375 -1.65625 C 7.8125 -1.050781 7.0625 -0.660156 6.1875 -0.484375 C 4.820312 -0.285156 3.707031 -0.648438 2.84375 -1.578125 C 1.988281 -2.515625 1.351562 -3.851562 0.9375 -5.59375 C 0.664062 -6.675781 0.476562 -8.300781 0.375 -10.46875 C 0.28125 -12.632812 0.28125 -15.070312 0.375 -17.78125 C 0.476562 -20.488281 0.707031 -23.226562 1.0625 -26 C 1.425781 -28.78125 1.914062 -31.332031 2.53125 -33.65625 C 3.15625 -35.976562 3.941406 -37.820312 4.890625 -39.1875 C 5.847656 -40.550781 6.992188 -41.179688 8.328125 -41.078125 Z M 2.828125 -10.21875 C 5.492188 -12.6875 7.492188 -15.289062 8.828125 -18.03125 C 10.160156 -20.769531 11.003906 -23.457031 11.359375 -26.09375 C 11.710938 -28.726562 11.738281 -31.101562 11.4375 -33.21875 C 11.144531 -35.34375 10.679688 -37.007812 10.046875 -38.21875 C 9.421875 -39.4375 8.800781 -39.988281 8.1875 -39.875 C 7.4375 -39.65625 6.769531 -38.878906 6.1875 -37.546875 C 5.613281 -36.210938 5.128906 -34.523438 4.734375 -32.484375 C 4.335938 -30.453125 4.003906 -28.28125 3.734375 -25.96875 C 3.460938 -23.65625 3.253906 -21.414062 3.109375 -19.25 C 2.960938 -17.082031 2.867188 -15.191406 2.828125 -13.578125 C 2.785156 -11.972656 2.785156 -10.851562 2.828125 -10.21875 Z M 2.828125 -10.21875 "/></g></g></g><g fill="#0c0a0a" fill-opacity="1"><g transform="translate(216.960629, 49.984051)"><g><path d="M 3.890625 -11.078125 C 5.203125 -11.140625 6.109375 -10.53125 6.609375 -9.25 C 6.960938 -8.3125 7.054688 -7.3125 6.890625 -6.25 C 6.734375 -5.1875 6.378906 -4.300781 5.828125 -3.59375 C 5.296875 -2.945312 4.644531 -2.53125 3.875 -2.34375 C 3.101562 -2.15625 2.351562 -2.210938 1.625 -2.515625 C 0.894531 -2.828125 0.316406 -3.4375 -0.109375 -4.34375 C -0.441406 -5.15625 -0.550781 -5.96875 -0.4375 -6.78125 C -0.34375 -7.46875 -0.148438 -8.132812 0.140625 -8.78125 C 0.472656 -9.582031 0.96875 -10.160156 1.625 -10.515625 C 2.28125 -10.878906 3.035156 -11.066406 3.890625 -11.078125 Z M 3.296875 -3.421875 C 3.859375 -3.753906 4.257812 -4.234375 4.5 -4.859375 C 4.738281 -5.492188 4.867188 -6.171875 4.890625 -6.890625 C 4.921875 -7.617188 4.863281 -8.296875 4.71875 -8.921875 C 4.53125 -9.785156 4.273438 -10.207031 3.953125 -10.1875 C 3.628906 -10.175781 3.296875 -9.890625 2.953125 -9.328125 C 2.609375 -8.765625 2.304688 -8.082031 2.046875 -7.28125 C 1.796875 -6.488281 1.640625 -5.722656 1.578125 -4.984375 C 1.523438 -4.253906 1.625 -3.722656 1.875 -3.390625 C 2.132812 -3.054688 2.609375 -3.066406 3.296875 -3.421875 Z M 3.296875 -3.421875 "/></g></g></g></g></g></svg>